<svg id="Layer_1" data-name="Layer 1" xmlns="http://www.w3.org/2000/svg" xmlns:xlink="http://www.w3.org/1999/xlink" viewBox="0 0 576.84 741.13"><defs><style>.cls-1{fill:none;}.cls-2{clip-path:url(#clip-path);}.cls-3{fill:#e1ae92;}.cls-4{fill:#ebc0a5;}.cls-5{fill:#e6ded3;}.cls-6{fill:#22a88f;}.cls-7{fill:#30baa0;}.cls-11,.cls-8{fill:#8d9fa4;}.cls-9{fill:#f7f6f5;}.cls-10{fill:#e4eaec;}.cls-11{fill-rule:evenodd;}.cls-12{fill:#7b898e;}.cls-13{fill:#fff;}</style><clipPath id="clip-path" transform="translate(-21.96 -12.4)"><rect class="cls-1" x="-309.97" y="10.95" width="763.21" height="919.16"/></clipPath></defs><title>Untitled-1</title><g class="cls-2"><path class="cls-3" d="M302.32,432.77l-0.58-.58c-15.79-15.83-15.91-41.31-.27-56.9L345,332.53c15.64-15.59,41.11-15.4,56.9.44l0.58,0.58c15.79,15.83,15.91,41.31.27,56.9L359.23,433.2C343.59,448.8,318.11,448.6,302.32,432.77Z" transform="translate(-21.96 -12.4)"/><path class="cls-3" d="M297.21,518.5l-0.53-.64c-14.59-17.59-12.46-43.42,4.75-57.7l47.88-39.09c17.21-14.28,43-11.6,57.59,6l0.53,0.64c14.59,17.59,12.46,43.42-4.75,57.7l-47.88,39.09C337.58,538.77,311.79,536.09,297.21,518.5Z" transform="translate(-21.96 -12.4)"/><path class="cls-3" d="M308.83,584.06l-0.35-.64c-9.48-17.48-3.29-39.16,13.81-48.44l47.47-25.26c17.1-9.28,38.65-2.63,48.13,14.84l0.35,0.64c9.48,17.48,3.29,39.16-13.81,48.44L357,598.9C339.86,608.18,318.31,601.53,308.83,584.06Z" transform="translate(-21.96 -12.4)"/><path class="cls-4" d="M289,395.82l-0.3-.73c-8.23-19.91.69-42.66,19.93-50.82L362,322.14c19.23-8.16,41.5,1.36,49.73,21.27l0.3,0.73c8.23,19.91-.69,42.66-19.93,50.82l-53.33,22.13C319.5,425.25,297.23,415.73,289,395.82Z" transform="translate(-21.96 -12.4)"/><path class="cls-5" d="M346.91,371.65l-0.2-.5c-5.46-13.71-14.38-23-30.52-16.29l-13.95,5.77c-16.15,6.68-18.19,20.47-12.73,34.18l0.2,0.5c5.46,13.71,16.36,22.16,32.5,15.48L336.16,405C352.31,398.34,352.37,385.36,346.91,371.65Z" transform="translate(-21.96 -12.4)"/><path class="cls-4" d="M288.19,489l-0.31-.73c-8.36-20,.7-42.88,20.24-51.08l54.17-22.24c19.54-8.2,42.15,1.37,50.52,21.38l0.31,0.73c8.36,20-.7,42.88-20.24,51.08l-54.17,22.24C319.17,518.57,296.55,509,288.19,489Z" transform="translate(-21.96 -12.4)"/><path class="cls-5" d="M345.08,465l-0.2-.49c-5.38-13.37-14.17-22.4-30.08-15.88l-13.74,5.63c-15.91,6.52-17.92,20-12.54,33.33l0.2,0.49c5.38,13.37,16.12,21.6,32,15.09l13.74-5.63C350.39,491,350.46,478.33,345.08,465Z" transform="translate(-21.96 -12.4)"/><path class="cls-4" d="M293,578.8l-0.28-.67c-7.79-18.41,1.93-40,21.7-48.19l54.81-22.27c19.77-8.2,42.12.08,49.91,18.49l0.28,0.67c7.79,18.41-1.93,40-21.7,48.19L342.92,597.3C323.14,605.5,300.8,597.22,293,578.8Z" transform="translate(-21.96 -12.4)"/><path class="cls-5" d="M345.46,557.62l-0.18-.44c-4.89-12-12.88-20.11-27.35-14.26L305.44,548C291,553.82,289.15,565.89,294,577.9l0.18,0.44c4.89,12,14.65,19.4,29.12,13.55l12.5-5.05C350.29,581,350.35,569.62,345.46,557.62Z" transform="translate(-21.96 -12.4)"/></g><rect class="cls-6" y="681.62" width="576.84" height="59.51" rx="15.19" ry="15.19"/><rect class="cls-7" y="60.62" width="576.84" height="667.22" rx="15.19" ry="15.19"/><rect class="cls-8" x="47.58" y="649.67" width="481.68" height="54.67" rx="12.35" ry="12.35"/><rect class="cls-9" x="47.58" y="99.25" width="481.68" height="595.23" rx="12.35" ry="12.35"/><circle class="cls-10" cx="133.02" cy="227.35" r="36.51"/><path class="cls-6" d="M168.42,228.63l-16.05,16.05L143,235.3a2,2,0,0,0-2.79,0l-3.49,3.49a2,2,0,0,0,0,2.79l10.78,10.78,3.49,3.49a2,2,0,0,0,2.79,0l3.49-3.49,17.45-17.45a2,2,0,0,0,0-2.79l-3.49-3.49A2,2,0,0,0,168.42,228.63Z" transform="translate(-21.96 -12.4)"/><rect class="cls-8" x="213.94" y="213.17" width="266.39" height="28.37"/><circle class="cls-10" cx="133.02" cy="350.96" r="36.51"/><rect class="cls-8" x="213.94" y="336.78" width="266.39" height="28.37"/><circle class="cls-10" cx="133.02" cy="474.57" r="36.51"/><rect class="cls-8" x="213.94" y="460.39" width="266.39" height="28.37"/><circle class="cls-10" cx="133.02" cy="598.18" r="36.51"/><rect class="cls-8" x="213.94" y="583.99" width="266.39" height="28.37"/><path class="cls-11" d="M466.1,112.95H154.65V67.39a7.08,7.08,0,0,1,7.08-7.08H459a7.08,7.08,0,0,1,7.08,7.08v45.55Z" transform="translate(-21.96 -12.4)"/><rect class="cls-12" x="132.69" y="100.55" width="311.45" height="20.23"/><circle class="cls-8" cx="288.42" cy="45.16" r="45.16"/><circle class="cls-13" cx="288.42" cy="45.16" r="24.77"/></svg>